<svg id="Layer_1" data-name="Layer 1" xmlns="http://www.w3.org/2000/svg" viewBox="0 0 154.03 56.4">
  <defs>
    <style>.cls-1{fill:#fff;}.cls-2{fill:none;stroke:#000;stroke-linejoin:round;stroke-width:0.75px;}</style>
  </defs>
  <path class="cls-1" d="M66.13,12.6h7.49L71.48,6.77,69.88,2.4l-1.47,4-2.28,6.2m-6.48,9L68.22,0h3.31L80.1,21.6H76.93L74.51,15H65.25l-2.42,6.6Z"/>
  <path class="cls-1" d="M83.83,13.8a6.38,6.38,0,0,0,1.22,4.28,3.64,3.64,0,0,0,5.71.07A6.19,6.19,0,0,0,91.93,14a7,7,0,0,0-1.19-4.49A3.69,3.69,0,0,0,87.81,8.1,3.55,3.55,0,0,0,85,9.47a6.74,6.74,0,0,0-1.14,4.33m8.1,7.8V19.34a4.65,4.65,0,0,1-4.26,2.56,5.87,5.87,0,0,1-3.34-1A6.59,6.59,0,0,1,82,18a10,10,0,0,1-.84-4.22A11,11,0,0,1,81.9,9.6a6,6,0,0,1,2.31-2.89,6.2,6.2,0,0,1,3.45-1,4.82,4.82,0,0,1,2.49.65,5.57,5.57,0,0,1,1.78,1.7V0h2.7V21.6Z"/>
  <path class="cls-1" d="M100.63,13.8a6.38,6.38,0,0,0,1.22,4.28,3.64,3.64,0,0,0,5.71.07A6.19,6.19,0,0,0,108.73,14a7,7,0,0,0-1.19-4.49,3.69,3.69,0,0,0-2.93-1.43,3.54,3.54,0,0,0-2.84,1.37,6.74,6.74,0,0,0-1.14,4.33m8.1,7.8V19.34a4.65,4.65,0,0,1-4.26,2.56,5.87,5.87,0,0,1-3.34-1A6.59,6.59,0,0,1,98.77,18a10,10,0,0,1-.84-4.22A11,11,0,0,1,98.7,9.6,6,6,0,0,1,101,6.71a6.2,6.2,0,0,1,3.45-1,4.82,4.82,0,0,1,2.49.65,5.57,5.57,0,0,1,1.78,1.7V0h2.7V21.6Z"/>
  <polyline class="cls-1" points="62.83 56.1 62.83 34.5 65.83 34.5 65.83 56.1 62.83 56.1"/>
  <path class="cls-1" d="M70.63,56.1V40.5h2.7v2.21A5.37,5.37,0,0,1,78.1,40.2a6,6,0,0,1,2.49.51A3.89,3.89,0,0,1,82.3,42,5.26,5.26,0,0,1,83.09,44a16.16,16.16,0,0,1,.14,2.56V56.1h-2.7V46.72a7.19,7.19,0,0,0-.3-2.39,2.52,2.52,0,0,0-1.07-1.26,3.4,3.4,0,0,0-1.8-.47,4.14,4.14,0,0,0-2.84,1.06c-.8.71-1.19,2.05-1.19,4V56.1h-2.7"/>
  <path class="cls-1" d="M91.28,56.1,85.63,40.5h2.86l3.2,9.34q.54,1.52,1,3.15.34-1.23,1-3l3.23-9.52h2.86L94.44,56.1H91.28"/>
  <path class="cls-1" d="M103.93,48.29a6.21,6.21,0,0,0,1.28,4.29,4.34,4.34,0,0,0,6.43,0,6.34,6.34,0,0,0,1.29-4.36A6.06,6.06,0,0,0,111.64,44a4.35,4.35,0,0,0-6.43,0,6.16,6.16,0,0,0-1.28,4.27m-2.7,0q0-4.3,2.37-6.38a7.1,7.1,0,0,1,4.84-1.72,6.9,6.9,0,0,1,5.18,2.09,8,8,0,0,1,2,5.79,10.36,10.36,0,0,1-.89,4.71,6.38,6.38,0,0,1-2.59,2.66,7.53,7.53,0,0,1-3.71.95,6.87,6.87,0,0,1-5.22-2.09A8.35,8.35,0,0,1,101.23,48.3Z"/>
  <path class="cls-1" d="M118.93,56.1V40.5h2.7V56.1h-2.7m0-18.9V34.5h2.7v2.7Z"/>
  <path class="cls-1" d="M135.43,50.4l2.7.3A6.74,6.74,0,0,1,136,54.89a6.29,6.29,0,0,1-4.28,1.51,6.64,6.64,0,0,1-5.12-2.08,8.43,8.43,0,0,1-1.93-6,10.65,10.65,0,0,1,.83-4.39A5.78,5.78,0,0,1,128,41.14a7.41,7.41,0,0,1,3.68-.94,5.81,5.81,0,0,1,6.17,5.1l-2.7.3a4.05,4.05,0,0,0-1.26-2.25,3.34,3.34,0,0,0-2.19-.75A4,4,0,0,0,128.54,44a6.39,6.39,0,0,0-1.21,4.32,6.56,6.56,0,0,0,1.18,4.35A3.86,3.86,0,0,0,131.59,54a3.74,3.74,0,0,0,2.54-.88,4.3,4.3,0,0,0,1.3-2.72"/>
  <path class="cls-1" d="M142,46.5h9.3a4.1,4.1,0,0,0-1.07-2.57,4.75,4.75,0,0,0-3.5-1.33,5.08,5.08,0,0,0-3.27,1.06A3.88,3.88,0,0,0,142,46.5m9.26,4.8,2.65.3a6.29,6.29,0,0,1-2.45,3.54,7.74,7.74,0,0,1-4.57,1.26,7.37,7.37,0,0,1-5.54-2.1,8,8,0,0,1-2-5.87,8.41,8.41,0,0,1,2.07-6.07,7.1,7.1,0,0,1,5.37-2.16A6.94,6.94,0,0,1,152,42.3a8.17,8.17,0,0,1,2,5.91c0,.15,0,.38,0,.69H142a5.47,5.47,0,0,0,1.52,3.78A4.76,4.76,0,0,0,147,54a5.06,5.06,0,0,0,2.6-.64A4.38,4.38,0,0,0,151.29,51.3Z"/>
  <path class="cls-1" d="M25.47,31.33V44.38a1.62,1.62,0,0,1-.73,1.55A6.48,6.48,0,0,1,21,47.29,6.59,6.59,0,0,1,17.2,46a1.73,1.73,0,0,1-.78-1.59l0-13-13.09,0a1.65,1.65,0,0,1-1.56-.73A6.51,6.51,0,0,1,.38,26.93a6.59,6.59,0,0,1,1.32-3.8,1.73,1.73,0,0,1,1.59-.78l13,0,0-13.08A1.65,1.65,0,0,1,17,7.69a6.51,6.51,0,0,1,3.75-1.36,6.62,6.62,0,0,1,3.79,1.32,1.71,1.71,0,0,1,.78,1.59V22.3l13,0a1.62,1.62,0,0,1,1.55.73,6.48,6.48,0,0,1,1.36,3.74A6.62,6.62,0,0,1,40,30.59a1.73,1.73,0,0,1-1.58.78H25.32"/>
  <path class="cls-2" d="M25.47,31.33V44.38a1.62,1.62,0,0,1-.73,1.55A6.48,6.48,0,0,1,21,47.29,6.59,6.59,0,0,1,17.2,46a1.73,1.73,0,0,1-.78-1.59l0-13-13.09,0a1.65,1.65,0,0,1-1.56-.73A6.51,6.51,0,0,1,.38,26.93a6.59,6.59,0,0,1,1.32-3.8,1.73,1.73,0,0,1,1.59-.78l13,0,0-13.08A1.65,1.65,0,0,1,17,7.69a6.51,6.51,0,0,1,3.75-1.36,6.62,6.62,0,0,1,3.79,1.32,1.71,1.71,0,0,1,.78,1.59V22.3l13,0a1.62,1.62,0,0,1,1.55.73,6.48,6.48,0,0,1,1.36,3.74A6.62,6.62,0,0,1,40,30.59a1.73,1.73,0,0,1-1.58.78H25.32"/>
</svg>