<svg id="Layer_1" data-name="Layer 1" xmlns="http://www.w3.org/2000/svg" viewBox="0 0 37.48 37.48"><defs><style>.cls-1{fill:none;stroke:#fff;stroke-linejoin:round;stroke-width:3px;}.cls-2{fill:#fff;}</style></defs><circle class="cls-1" cx="18.74" cy="18.74" r="17.24"/><path class="cls-2" d="M17.77,30.73a3.11,3.11,0,0,0,2.17,0,4.78,4.78,0,0,0,1.68-1.79,2,2,0,0,0,.32-1.21,9.46,9.46,0,0,0,0-1.06,8,8,0,0,0-.2-1L18.32,22H30.09a2.86,2.86,0,0,0,1.39-.69,6.88,6.88,0,0,0,1-1.86l0-2.19a5.72,5.72,0,0,0-1-1.69,3.36,3.36,0,0,0-1.49-.7l-11.74,0,3.46-3.74a3.39,3.39,0,0,0,.16-2.5A6,6,0,0,0,19.76,6.1,1.74,1.74,0,0,0,18,6L6.41,17a3.25,3.25,0,0,0-.35,1.19,3.76,3.76,0,0,0,.29,1.27L17.77,30.73"/></svg>