<svg id="Layer_1" data-name="Layer 1" xmlns="http://www.w3.org/2000/svg" viewBox="0 0 15.77 15.77"><defs><style>.cls-1{fill:#f8f7f7;stroke:#727475;stroke-miterlimit:10;stroke-width:0.25px;}.cls-2,.cls-4{fill:#727475;}.cls-3{fill:#e9e9e9;}.cls-4{fill-rule:evenodd;}</style></defs><rect class="cls-1" x="0.13" y="0.13" width="15.52" height="15.52" rx="2.97"/><polyline class="cls-2" points="2.64 10.42 1.94 14.04 5.64 13.38 2.64 10.42"/><path class="cls-3" d="M10.68,3c0-.25.3-.53.58-.81l0,0c.2-.21.41-.41.61-.42s.39.19.58.38l1.33,1.33c.17.17.33.33.33.5s-.16.32-.32.48l-.37.38c-.19.19-.38.38-.56.39s-.34-.15-.51-.32l-1.21-1.2c-.23-.24-.46-.47-.44-.73"/><polyline class="cls-3" points="2.82 10.93 2.28 13.71 5.12 13.21 2.82 10.93"/><path class="cls-4" d="M3.69,10c0-.26.3-.54.58-.82l4.5-4.5c.21-.21.42-.41.62-.42s.39.18.58.38L11.3,6c.16.16.33.33.33.49s-.16.33-.32.49l-4.9,4.9c-.19.19-.38.38-.56.4s-.34-.16-.51-.32L4.14,10.7c-.24-.23-.47-.47-.45-.72m-.55,0c0-.32.38-.67.73-1L8.64,4.17c.26-.26.52-.52.77-.53s.49.23.74.48l1.67,1.67c.21.21.42.42.42.63s-.2.41-.41.61L6.56,12.3c-.24.24-.48.48-.7.5s-.43-.19-.64-.4L3.7,10.88C3.41,10.58,3.11,10.29,3.14,10Z"/><path class="cls-4" d="M10.69,3c0-.26.3-.54.58-.81l0,0c.21-.21.41-.41.61-.42s.39.18.58.38l1.33,1.33c.17.16.34.33.34.49s-.16.33-.33.49l-.37.38c-.19.19-.38.38-.56.39s-.34-.15-.51-.32l-1.2-1.2c-.24-.24-.47-.47-.45-.73m-.37,0c0-.35.4-.72.78-1.09l0,0c.27-.27.55-.55.81-.56s.52.25.78.51l1.45,1.44c.22.22.44.44.44.66s-.21.44-.43.66l-.5.49c-.25.26-.51.51-.74.53s-.46-.2-.68-.42L10.92,4C10.61,3.71,10.29,3.4,10.32,3.06Z"/><path class="cls-3" d="M3.69,10c0-.25.3-.53.58-.81L8.8,4.61c.21-.2.41-.41.61-.41s.39.18.59.37L11.33,5.9c.16.17.33.34.33.5s-.16.33-.32.49l-4.93,5c-.19.19-.38.38-.56.39s-.34-.15-.51-.32l-1.21-1.2c-.23-.24-.46-.47-.44-.73"/></svg>