<svg id="Layer_1" data-name="Layer 1" xmlns="http://www.w3.org/2000/svg" viewBox="0 0 204.5 58.24"><defs><style>.cls-1{fill:#fff;}.cls-2{fill:#e52421;}.cls-3{fill:none;stroke:#e52421;stroke-linejoin:round;stroke-width:0.38px;}.cls-4{fill:#193b59;}</style></defs><polyline class="cls-1" points="61.28 20.44 61.28 0.28 75.84 0.28 75.84 2.52 64.08 2.52 64.08 8.96 75 8.96 75 11.2 64.08 11.2 64.08 18.2 76.4 18.2 76.4 20.44 61.28 20.44"/><path class="cls-1" d="M79.76,20.44V5.88h2.52V8A5,5,0,0,1,86.74,5.6a5.77,5.77,0,0,1,2.33.47,3.73,3.73,0,0,1,1.58,1.24,4.66,4.66,0,0,1,.74,1.82,14.33,14.33,0,0,1,.13,2.39v8.92H89V11.69a6.56,6.56,0,0,0-.28-2.23,2.37,2.37,0,0,0-1-1.18,3.19,3.19,0,0,0-1.68-.44,3.84,3.84,0,0,0-2.65,1c-.75.66-1.12,1.91-1.12,3.75v7.86H79.76"/><path class="cls-1" d="M96.84,13.16a6,6,0,0,0,1.14,4,3.44,3.44,0,0,0,2.68,1.32,3.37,3.37,0,0,0,2.65-1.26,5.77,5.77,0,0,0,1.09-3.86,6.5,6.5,0,0,0-1.11-4.19,3.45,3.45,0,0,0-2.73-1.33A3.34,3.34,0,0,0,97.9,9.12a6.34,6.34,0,0,0-1.06,4m7.56,7.28V18.33a4.31,4.31,0,0,1-4,2.39,5.54,5.54,0,0,1-3.12-.95A6.35,6.35,0,0,1,95.1,17.1a9.38,9.38,0,0,1-.78-3.93A10.34,10.34,0,0,1,95,9.24a5.65,5.65,0,0,1,5.38-3.64,4.39,4.39,0,0,1,2.32.61A5.05,5.05,0,0,1,104.4,7.8V.28h2.52V20.44Z"/><path class="cls-1" d="M120.64,13.16a5.79,5.79,0,0,0,1.2,4,3.87,3.87,0,0,0,3,1.33,3.83,3.83,0,0,0,3-1.33,5.94,5.94,0,0,0,1.2-4.07,5.65,5.65,0,0,0-1.2-3.91,4.06,4.06,0,0,0-6,0,5.78,5.78,0,0,0-1.2,4m-2.52,0q0-4,2.22-5.95a6.65,6.65,0,0,1,4.51-1.61,6.38,6.38,0,0,1,4.83,2A7.42,7.42,0,0,1,131.56,13a9.71,9.71,0,0,1-.83,4.4,5.85,5.85,0,0,1-2.42,2.48,7,7,0,0,1-3.46.89A6.42,6.42,0,0,1,120,18.77,7.8,7.8,0,0,1,118.12,13.16Z"/><path class="cls-1" d="M135.2,20.44V8.12H133V5.88h2.24V4.33a6.57,6.57,0,0,1,.27-2.18A3.08,3.08,0,0,1,136.76.6a4.6,4.6,0,0,1,2.53-.6,12.32,12.32,0,0,1,2.3.24l-.37,2.14a8.35,8.35,0,0,0-1.45-.14,2.12,2.12,0,0,0-1.58.48,2.66,2.66,0,0,0-.47,1.81V5.88h2.8V8.12h-2.8V20.44H135.2"/><path class="cls-1" d="M155.78,20.44V11.9L147.94.28h3.32l4.08,6.06c.76,1.12,1.43,2.1,2,3,.47-.74,1.12-1.77,2-3.09L163.11.28h3.31L158.58,11.9v8.54h-2.8"/><path class="cls-1" d="M167,11.48h8.68a3.81,3.81,0,0,0-1-2.4,4.41,4.41,0,0,0-3.26-1.24,4.73,4.73,0,0,0-3.05,1A3.65,3.65,0,0,0,167,11.48M175.63,16l2.47.28a5.94,5.94,0,0,1-2.28,3.31,7.27,7.27,0,0,1-4.27,1.17,6.87,6.87,0,0,1-5.17-2,7.48,7.48,0,0,1-1.92-5.48,7.84,7.84,0,0,1,1.94-5.66,6.6,6.6,0,0,1,5-2,6.47,6.47,0,0,1,4.88,2,7.61,7.61,0,0,1,1.89,5.51c0,.14,0,.36,0,.65H167a5.12,5.12,0,0,0,1.43,3.53,4.42,4.42,0,0,0,3.19,1.23,4.66,4.66,0,0,0,2.43-.6A4,4,0,0,0,175.63,16Z"/><path class="cls-1" d="M190.22,13.44a18.83,18.83,0,0,1-3.91.82,10,10,0,0,0-2.09.44,2.1,2.1,0,0,0-.95.71,1.8,1.8,0,0,0,.4,2.49,3.29,3.29,0,0,0,2.12.58,4.91,4.91,0,0,0,2.45-.6,3.77,3.77,0,0,0,1.58-1.53,4.59,4.59,0,0,0,.39-2.13v-.78m.28,5a9.83,9.83,0,0,1-2.65,1.73,6.72,6.72,0,0,1-2.62.51,5,5,0,0,1-3.56-1.17,3.89,3.89,0,0,1-1.25-3,4.09,4.09,0,0,1,.47-1.94,4,4,0,0,1,1.23-1.41,5.8,5.8,0,0,1,1.72-.81A18.21,18.21,0,0,1,186,12a20.74,20.74,0,0,0,4.25-.84c0-.31,0-.52,0-.6a2.48,2.48,0,0,0-.67-2,4,4,0,0,0-2.69-.78,4.26,4.26,0,0,0-2.46.56,3.38,3.38,0,0,0-1.18,2l-2.52-.28a5.88,5.88,0,0,1,1.1-2.5A4.85,4.85,0,0,1,184,6.11a10,10,0,0,1,3.34-.51,8.91,8.91,0,0,1,3,.44,4,4,0,0,1,1.73,1.12,4,4,0,0,1,.78,1.7,13.79,13.79,0,0,1,.12,2.21V14.2a33.85,33.85,0,0,0,.17,4.29,6.27,6.27,0,0,0,.67,2h-2.52A4.39,4.39,0,0,1,190.5,18.48Z"/><path class="cls-1" d="M196.94,20.44V5.88h2.24v2A5.36,5.36,0,0,1,200.65,6a2.66,2.66,0,0,1,1.48-.43,4.73,4.73,0,0,1,2.37.69l-.8,2.25a2.64,2.64,0,0,0-1.67-.7,2,2,0,0,0-1.33.5,2.69,2.69,0,0,0-.85,1.38,10.46,10.46,0,0,0-.39,2.94v7.78h-2.52"/><path class="cls-1" d="M64.08,41.44h5.49a7.5,7.5,0,0,0,2.69-.38,2.83,2.83,0,0,0,1.42-1.22A3.62,3.62,0,0,0,74.16,38a3.19,3.19,0,0,0-1-2.37,4.2,4.2,0,0,0-3-.93H64.08v6.72m-2.8,11.2V32.48h8.81A11,11,0,0,1,74,33a4.36,4.36,0,0,1,2.15,1.91,5.9,5.9,0,0,1,.8,3,5.11,5.11,0,0,1-1.33,3.59,6.57,6.57,0,0,1-4.11,1.86,6.37,6.37,0,0,1,1.56,1,12.88,12.88,0,0,1,2.12,2.7l3.35,5.53H75.33l-2.56-4.23c-.74-1.21-1.36-2.15-1.84-2.79a5.19,5.19,0,0,0-1.3-1.34,4.07,4.07,0,0,0-1.16-.51A8,8,0,0,0,67,43.68h-3v9Z"/><path class="cls-1" d="M82.56,43.68h8.68a3.81,3.81,0,0,0-1-2.4A4.41,4.41,0,0,0,87,40a4.73,4.73,0,0,0-3,1,3.65,3.65,0,0,0-1.37,2.65m8.65,4.48,2.47.28a5.88,5.88,0,0,1-2.28,3.3,7.23,7.23,0,0,1-4.27,1.18A6.87,6.87,0,0,1,82,51,7.48,7.48,0,0,1,80,45.48,7.84,7.84,0,0,1,82,39.82a6.62,6.62,0,0,1,5-2,6.47,6.47,0,0,1,4.88,2,7.61,7.61,0,0,1,1.89,5.51c0,.15,0,.36,0,.65H82.56A5.1,5.1,0,0,0,84,49.45a4.41,4.41,0,0,0,3.19,1.23,4.66,4.66,0,0,0,2.43-.6A4.07,4.07,0,0,0,91.21,48.16Z"/><path class="cls-1" d="M99.08,45.48a6,6,0,0,0,1.09,3.93,3.36,3.36,0,0,0,2.64,1.27,3.44,3.44,0,0,0,2.71-1.32,6.14,6.14,0,0,0,1.12-4.07,6,6,0,0,0-1.1-3.94A3.32,3.32,0,0,0,102.92,40a3.39,3.39,0,0,0-2.67,1.39,6.15,6.15,0,0,0-1.17,4M96.56,58.24V38.08h2.52v2.23a5.79,5.79,0,0,1,1.74-1.88,4.26,4.26,0,0,1,2.36-.63,5.5,5.5,0,0,1,3.19,1,5.91,5.91,0,0,1,2.09,2.69,10.05,10.05,0,0,1,.7,3.81,9.68,9.68,0,0,1-.79,4,6.06,6.06,0,0,1-5.5,3.67,4.26,4.26,0,0,1-2.19-.57,5.22,5.22,0,0,1-1.6-1.46v7.35Z"/><path class="cls-1" d="M114.2,45.36a5.77,5.77,0,0,0,1.2,4,3.87,3.87,0,0,0,3,1.33,3.83,3.83,0,0,0,3-1.33,5.94,5.94,0,0,0,1.2-4.07,5.65,5.65,0,0,0-1.2-3.91,4.06,4.06,0,0,0-6,0,5.78,5.78,0,0,0-1.2,4m-2.52,0q0-4,2.22-6a6.6,6.6,0,0,1,4.51-1.61,6.38,6.38,0,0,1,4.83,2,7.42,7.42,0,0,1,1.88,5.39,9.71,9.71,0,0,1-.83,4.4A5.9,5.9,0,0,1,121.87,52a7,7,0,0,1-3.46.89,6.42,6.42,0,0,1-4.87-2A7.82,7.82,0,0,1,111.68,45.36Z"/><path class="cls-1" d="M128.2,52.64V38.08h2.24v2a5.36,5.36,0,0,1,1.47-1.8,2.66,2.66,0,0,1,1.48-.43,4.73,4.73,0,0,1,2.37.69l-.8,2.25a2.59,2.59,0,0,0-1.67-.7,2,2,0,0,0-1.33.5,2.69,2.69,0,0,0-.85,1.38,10.46,10.46,0,0,0-.39,2.94v7.78H128.2"/><path class="cls-1" d="M142.76,50.53l.28,2.18a9.63,9.63,0,0,1-1.87.21,4.34,4.34,0,0,1-2.1-.42,2.34,2.34,0,0,1-1-1.1,8.15,8.15,0,0,1-.31-2.85V40.32h-2V38.08h2v-3.6L140.24,33v5.07h2.52v2.24h-2.52V48.7a4.36,4.36,0,0,0,.13,1.33,1,1,0,0,0,.43.48,1.82,1.82,0,0,0,.86.17,5.33,5.33,0,0,0,1.1-.15"/><path class="cls-1" d="M144.16,48.16l2.52-.28A3.11,3.11,0,0,0,147.81,50a4.1,4.1,0,0,0,2.58.72,3.94,3.94,0,0,0,2.48-.64,1.85,1.85,0,0,0,.81-1.49,1.36,1.36,0,0,0-.93-1.21,16.94,16.94,0,0,0-2.53-.77,25.31,25.31,0,0,1-3.59-1.19A3.74,3.74,0,0,1,145,44a3.67,3.67,0,0,1-.56-2,3.84,3.84,0,0,1,.44-1.81,4,4,0,0,1,1.19-1.39,5.15,5.15,0,0,1,1.54-.72,7.09,7.09,0,0,1,2.09-.3,7.89,7.89,0,0,1,3,.51,4,4,0,0,1,1.88,1.37,5.55,5.55,0,0,1,.83,2.32l-2.52.28a2.49,2.49,0,0,0-.88-1.65,3.25,3.25,0,0,0-2.07-.59,3.81,3.81,0,0,0-2.25.51,1.52,1.52,0,0,0-.68,1.21,1.19,1.19,0,0,0,.28.78,2,2,0,0,0,.88.6c.23.09.9.28,2,.58,1.62.47,2.82.85,3.59,1.15a4.09,4.09,0,0,1,1.81,1.3,3.37,3.37,0,0,1,.66,2.12,4.18,4.18,0,0,1-.72,2.34,4.58,4.58,0,0,1-2.06,1.69,7.46,7.46,0,0,1-3.06.6,6.73,6.73,0,0,1-4.31-1.2,5.69,5.69,0,0,1-1.89-3.56"/><path class="cls-1" d="M2.22,12.18,43.21,5a2.25,2.25,0,0,1,2.61,1.82l6,34A2.26,2.26,0,0,1,50,43.36L9,50.58a2.25,2.25,0,0,1-2.61-1.82l-6-34a2.25,2.25,0,0,1,1.83-2.6"/><polyline class="cls-2" points="0 12.57 45.42 4.56 46.99 13.42 1.56 21.43 0 12.57"/><path class="cls-2" d="M17.39,40.67l1.74-.5A3.63,3.63,0,0,0,20.42,42a2.52,2.52,0,0,0,1.85.29,2.69,2.69,0,0,0,1.91-1.18,2.91,2.91,0,0,0,.42-2.17,2.63,2.63,0,0,0-3.16-2.18,4.71,4.71,0,0,0-1.16.4l-.09-1.61a1.45,1.45,0,0,0,.27,0,3.25,3.25,0,0,0,1.73-.87,1.92,1.92,0,0,0,.51-1.84,2.07,2.07,0,0,0-.86-1.4,2.11,2.11,0,0,0-1.66-.32,2.26,2.26,0,0,0-1.47.86,3,3,0,0,0-.49,1.92l-1.81.11a4.77,4.77,0,0,1,.91-3,3.91,3.91,0,0,1,2.52-1.45,4.4,4.4,0,0,1,2.14.13,3.56,3.56,0,0,1,1.67,1.09,3.62,3.62,0,0,1,.82,1.72,3,3,0,0,1-.2,1.74A3.4,3.4,0,0,1,23,35.61a3.45,3.45,0,0,1,2.2.85,3.5,3.5,0,0,1,1.14,2.14A4.24,4.24,0,0,1,25.6,42a4.66,4.66,0,0,1-3.11,1.88,4.4,4.4,0,0,1-3.22-.57,4.32,4.32,0,0,1-1.88-2.6"/><path class="cls-2" d="M35.58,41.33l-1.77.31-2-11a8.86,8.86,0,0,1-1.47,1.49,11.84,11.84,0,0,1-1.7,1.22l-.3-1.67a11,11,0,0,0,2.31-2.12,6.6,6.6,0,0,0,1.24-2.16l1.14-.21,2.5,14.19"/><path class="cls-2" d="M8.6,27.16,9.78,27a2.8,2.8,0,0,0,.83-.26,1.16,1.16,0,0,0,.45-.39,1.8,1.8,0,0,0,.27-.8,3.78,3.78,0,0,0-.05-1.14A2.84,2.84,0,0,0,10.75,23a1.5,1.5,0,0,0-.8-.53,2.83,2.83,0,0,0-1,.05l-1.15.2.77,4.42m-.67.76-1-5.67,1.93-.34a4.18,4.18,0,0,1,1-.09,1.78,1.78,0,0,1,.89.26,2.21,2.21,0,0,1,.84.85,3.82,3.82,0,0,1,.46,1.31,3.94,3.94,0,0,1,0,1.17,2.68,2.68,0,0,1-.24.89,1.84,1.84,0,0,1-.42.61,2,2,0,0,1-.62.4,4,4,0,0,1-.88.26Z"/><path class="cls-2" d="M13.47,24.35l2.44-.43a1.05,1.05,0,0,0-.4-.63,1.3,1.3,0,0,0-1-.19,1.35,1.35,0,0,0-.81.44,1,1,0,0,0-.25.81m2.65.83.72,0a1.74,1.74,0,0,1-.48,1,2.1,2.1,0,0,1-1.15.54,2,2,0,0,1-1.55-.29A2.2,2.2,0,0,1,12.85,25a2.28,2.28,0,0,1,.26-1.69,2,2,0,0,1,1.31-.82,1.91,1.91,0,0,1,1.47.31,2.2,2.2,0,0,1,.81,1.46,1.64,1.64,0,0,1,0,.18L13.58,25a1.45,1.45,0,0,0,.58.92,1.27,1.27,0,0,0,1,.19,1.34,1.34,0,0,0,.65-.29A1.12,1.12,0,0,0,16.12,25.18Z"/><path class="cls-2" d="M20.27,24.21l.72-.05a1.78,1.78,0,0,1-.37,1.2,1.69,1.69,0,0,1-1.06.6,1.82,1.82,0,0,1-1.44-.31,2.28,2.28,0,0,1-.78-1.48,2.79,2.79,0,0,1,0-1.19,1.6,1.6,0,0,1,.53-.86,2,2,0,0,1,.93-.42,1.66,1.66,0,0,1,1.14.16,1.6,1.6,0,0,1,.71.9L20,23a1.08,1.08,0,0,0-.44-.53.84.84,0,0,0-.61-.1,1.08,1.08,0,0,0-.76.5A1.72,1.72,0,0,0,18,24a1.82,1.82,0,0,0,.51,1.09,1,1,0,0,0,.88.22,1,1,0,0,0,.62-.35,1.11,1.11,0,0,0,.22-.77"/><path class="cls-2" d="M21.82,22.88l2.44-.43a1.05,1.05,0,0,0-.4-.63,1.29,1.29,0,0,0-1-.19,1.34,1.34,0,0,0-.81.43,1.08,1.08,0,0,0-.25.82m2.66.83.71-.05a1.77,1.77,0,0,1-.48,1.05,2.17,2.17,0,0,1-1.14.54A2,2,0,0,1,22,25a2.2,2.2,0,0,1-.81-1.45,2.27,2.27,0,0,1,.26-1.69A1.92,1.92,0,0,1,22.78,21a1.84,1.84,0,0,1,1.46.31,2.2,2.2,0,0,1,.81,1.46,1.64,1.64,0,0,1,0,.18l-3.15.56a1.48,1.48,0,0,0,.58.92,1.27,1.27,0,0,0,1,.19,1.44,1.44,0,0,0,.65-.29A1.23,1.23,0,0,0,24.48,23.71Z"/><path class="cls-2" d="M26.2,24.7l-.72-4.09.71-.13.11.62a1.53,1.53,0,0,1,.41-.6,1.43,1.43,0,0,1,.67-.31,1.25,1.25,0,0,1,.76.07,1,1,0,0,1,.5.48,1.48,1.48,0,0,1,1.14-1,1.28,1.28,0,0,1,1,.16,1.47,1.47,0,0,1,.51,1l.5,2.81-.71.12-.45-2.55a2.16,2.16,0,0,0-.17-.58.62.62,0,0,0-.3-.25.91.91,0,0,0-.44,0,1,1,0,0,0-.66.41,1.27,1.27,0,0,0-.13,1l.42,2.36-.71.12-.47-2.63a1.13,1.13,0,0,0-.29-.65.65.65,0,0,0-.59-.14,1,1,0,0,0-.51.25.81.81,0,0,0-.28.51,2.39,2.39,0,0,0,0,.87l.37,2.1-.71.12"/><path class="cls-2" d="M33.16,21.33a2,2,0,0,0,.38,1,.94.94,0,0,0,.94.36,1,1,0,0,0,.69-.51A1.7,1.7,0,0,0,35.3,21a1.71,1.71,0,0,0-.51-1.07,1,1,0,0,0-.81-.24,1,1,0,0,0-.69.51,1.7,1.7,0,0,0-.13,1.15m.37,2.08-.71.13-1-5.68.71-.12.37,2.1a1.36,1.36,0,0,1,1-.8,1.68,1.68,0,0,1,.74,0,1.61,1.61,0,0,1,.62.33,2.17,2.17,0,0,1,.46.6,3.07,3.07,0,0,1,.26.81,2.37,2.37,0,0,1-.22,1.71,1.57,1.57,0,0,1-1.12.78,1.22,1.22,0,0,1-1.22-.47Z"/><path class="cls-2" d="M37.26,20.15l2.45-.43a1.07,1.07,0,0,0-.41-.62,1.2,1.2,0,0,0-1-.19,1.31,1.31,0,0,0-.81.43,1,1,0,0,0-.26.81m2.66.83.71,0a1.71,1.71,0,0,1-.48,1,2.11,2.11,0,0,1-1.14.55,2,2,0,0,1-1.56-.3,2.15,2.15,0,0,1-.81-1.44,2.22,2.22,0,0,1,.27-1.69,1.85,1.85,0,0,1,1.31-.82,1.83,1.83,0,0,1,1.47.31,2.13,2.13,0,0,1,.8,1.46,1.3,1.3,0,0,1,0,.18l-3.15.55a1.52,1.52,0,0,0,.58.93,1.27,1.27,0,0,0,1,.18,1.19,1.19,0,0,0,.65-.29A1.15,1.15,0,0,0,39.92,21Z"/><path class="cls-2" d="M41.72,22,41,17.87l.63-.11.1.54a1.45,1.45,0,0,1,.32-.57.76.76,0,0,1,.4-.2,1.34,1.34,0,0,1,.7.08l-.12.67a.72.72,0,0,0-.5-.11.57.57,0,0,0-.35.2.87.87,0,0,0-.17.43,2.74,2.74,0,0,0,0,.85l.38,2.19-.71.12"/><line class="cls-3" x1="7.38" y1="29.93" x2="44.06" y2="23.46"/><line class="cls-3" x1="10.38" y1="46.94" x2="47.06" y2="40.47"/><path class="cls-4" d="M8.77,12.92A2.68,2.68,0,1,1,6.6,16a2.68,2.68,0,0,1,2.17-3.1"/><path class="cls-4" d="M38.14,7.75A2.67,2.67,0,1,1,36,10.84a2.66,2.66,0,0,1,2.17-3.09"/></svg>