<svg id="Layer_1" data-name="Layer 1" xmlns="http://www.w3.org/2000/svg" viewBox="0 0 68.75 24.96"><defs><style>.cls-1{fill:#7c7c69;}.cls-2,.cls-6{fill:none;stroke-linejoin:round;stroke-width:0.38px;}.cls-2{stroke:#000;}.cls-3{fill:#767668;}.cls-4{fill:#68685e;fill-rule:evenodd;}.cls-5{fill:#fff;}.cls-5,.cls-6{opacity:0.61;}.cls-6{stroke:#9a9a48;}</style></defs><path class="cls-1" d="M.21,3.57c3.76-.49,7.52-1,11-1.47s6.62-1,9.75-1.31a82.51,82.51,0,0,1,8.72-.6A29.77,29.77,0,0,1,36.58,1C39,1.51,42,2.35,44.53,3A31.65,31.65,0,0,1,50,4.77c.8.49.25.93-.23,1.38A2.08,2.08,0,0,1,48,7a16.33,16.33,0,0,1-4.43-1.61A46.36,46.36,0,0,0,36.5,2.58a24.83,24.83,0,0,0-7.42-.68,40.58,40.58,0,0,0-7.24.8,17.53,17.53,0,0,0-4.94,2,18.82,18.82,0,0,1-5,2.35A105.12,105.12,0,0,1,1.56,9.13Z"/><path class="cls-2" d="M.21,3.57c3.76-.49,7.52-1,11-1.47s6.62-1,9.75-1.31a82.51,82.51,0,0,1,8.72-.6A29.77,29.77,0,0,1,36.58,1C39,1.51,42,2.35,44.53,3A31.65,31.65,0,0,1,50,4.77c.8.49.25.93-.23,1.38A2.08,2.08,0,0,1,48,7a16.33,16.33,0,0,1-4.43-1.61A46.36,46.36,0,0,0,36.5,2.58a24.83,24.83,0,0,0-7.42-.68,40.58,40.58,0,0,0-7.24.8,17.53,17.53,0,0,0-4.94,2,18.82,18.82,0,0,1-5,2.35A105.12,105.12,0,0,1,1.56,9.13Z"/><path class="cls-3" d="M25.51,15.29c6.87-1.24,13.74-2.48,17.66-3.21s4.87-.95,6.75-1.37,4.69-1,6.78-1.35A19.3,19.3,0,0,1,62,9.23c1.82.19,4.1.57,6.37,1,.12,0,.22.37.22.49L66.5,13.25a4.94,4.94,0,0,0-.63-.15A15.15,15.15,0,0,0,59.82,11a27.41,27.41,0,0,0-7.73,1.2,27.28,27.28,0,0,0-5.91,2.15c-1.94.87-5.73,3.3-7.87,4.07-2.67,1-7.48,2.48-9.71,3-3.27.8-3.45.4-3.45.37l-.41-6.42A3.86,3.86,0,0,0,25.51,15.29Z"/><path class="cls-2" d="M25.51,15.29c6.87-1.24,13.74-2.48,17.66-3.21s4.87-.95,6.75-1.37,4.69-1,6.78-1.35A19.3,19.3,0,0,1,62,9.23c1.82.19,4.1.57,6.37,1,.12,0,.22.37.22.49L66.5,13.25a4.94,4.94,0,0,0-.63-.15A15.15,15.15,0,0,0,59.82,11a27.41,27.41,0,0,0-7.73,1.2,27.28,27.28,0,0,0-5.91,2.15c-1.94.87-5.73,3.3-7.87,4.07-2.67,1-7.48,2.48-9.71,3-3.27.8-3.45.4-3.45.37l-.41-6.42A3.86,3.86,0,0,0,25.51,15.29Z"/><path class="cls-4" d="M1.35,5.78c.39-.25,1.53.72,2.66,1.7a12.17,12.17,0,0,1,3,2.76,4.16,4.16,0,0,1,.41,2.69c-.07.82-.11,1.52-.13,2.14a3.22,3.22,0,0,1-.16,1.4c-.18.25-.55.22-1.08-.12a8.7,8.7,0,0,1-1.95-1.88,14,14,0,0,1-1.82-3,13.9,13.9,0,0,1-.73-2.86C1.3,7.53,1,6,1.35,5.78ZM2.44,4.63a12,12,0,0,1,1.89,1.1c.79.55,1.81,1.36,2.5,1.9A12.39,12.39,0,0,1,8.18,8.76a4.9,4.9,0,0,1,.71,1c.18.33.31.64.63.79a3,3,0,0,0,1.31.12c.47,0,.89-.07,1.34-.06a8.91,8.91,0,0,1,1.63.25c.69.16,1.62.4,2.61.73s2.05.73,3.41,1.24,3,1.09,3.88,1.46,1,.53,1.05,1,.12,1.19.16,2.16.1,2.17.14,3.29a21.72,21.72,0,0,1,0,2.8.92.92,0,0,1-.76.94,10.71,10.71,0,0,1-2.14.29,10.53,10.53,0,0,1-3-.22,15.47,15.47,0,0,1-3.56-1.35,8.13,8.13,0,0,1-2.64-2,8.31,8.31,0,0,1-1.23-2.53c-.26-.8-.44-1.45-.61-2a4.14,4.14,0,0,0-.61-1.37c-.28-.35-.68-.61-1.09-.41a4.92,4.92,0,0,0-1.23,1.49,2.88,2.88,0,0,1-1.56,1.38,3.55,3.55,0,0,1-2.25-.57,4,4,0,0,1-1.77-2.06A29.83,29.83,0,0,1,1,10.46,23.31,23.31,0,0,1,.38,7.12C.29,6.33.24,5.79.22,5.34s0-.81,0-1.09,0-.49.16-.52a1.92,1.92,0,0,1,.8.28Zm9.37,7.69c.27-.27.81-.16,1.42,0s1.31.44,2.1.72l2.51.82c.83.28,1.6.54,2.36.83a7.3,7.3,0,0,1,2,1,2.19,2.19,0,0,1,.64,1.65c.06.8.06,1.95.18,3.19s.37,2.57-.41,2.93-2.59-.25-3.95-.75a20,20,0,0,1-3.09-1.34,9.68,9.68,0,0,1-2-1.46,4.54,4.54,0,0,1-1-1.54,12.2,12.2,0,0,1-.69-2.16A13.49,13.49,0,0,1,11.55,14,2.41,2.41,0,0,1,11.81,12.32Z"/><path class="cls-2" d="M1.35,5.78c.39-.25,1.53.72,2.66,1.7a12.17,12.17,0,0,1,3,2.76,4.16,4.16,0,0,1,.41,2.69c-.07.82-.11,1.52-.13,2.14a3.22,3.22,0,0,1-.16,1.4c-.18.25-.55.22-1.08-.12a8.7,8.7,0,0,1-1.95-1.88,14,14,0,0,1-1.82-3,13.9,13.9,0,0,1-.73-2.86C1.3,7.53,1,6,1.35,5.78ZM2.44,4.63a12,12,0,0,1,1.89,1.1c.79.55,1.81,1.36,2.5,1.9A12.39,12.39,0,0,1,8.18,8.76a4.9,4.9,0,0,1,.71,1c.18.33.31.64.63.79a3,3,0,0,0,1.31.12c.47,0,.89-.07,1.34-.06a8.91,8.91,0,0,1,1.63.25c.69.16,1.62.4,2.61.73s2.05.73,3.41,1.24,3,1.09,3.88,1.46,1,.53,1.05,1,.12,1.19.16,2.16.1,2.17.14,3.29a21.72,21.72,0,0,1,0,2.8.92.92,0,0,1-.76.94,10.71,10.71,0,0,1-2.14.29,10.53,10.53,0,0,1-3-.22,15.47,15.47,0,0,1-3.56-1.35,8.13,8.13,0,0,1-2.64-2,8.31,8.31,0,0,1-1.23-2.53c-.26-.8-.44-1.45-.61-2a4.14,4.14,0,0,0-.61-1.37c-.28-.35-.68-.61-1.09-.41a4.92,4.92,0,0,0-1.23,1.49,2.88,2.88,0,0,1-1.56,1.38,3.55,3.55,0,0,1-2.25-.57,4,4,0,0,1-1.77-2.06A29.83,29.83,0,0,1,1,10.46,23.31,23.31,0,0,1,.38,7.12C.29,6.33.24,5.79.22,5.34s0-.81,0-1.09,0-.49.16-.52a1.92,1.92,0,0,1,.8.28Zm9.37,7.69c.27-.27.81-.16,1.42,0s1.31.44,2.1.72l2.51.82c.83.28,1.6.54,2.36.83a7.3,7.3,0,0,1,2,1,2.19,2.19,0,0,1,.64,1.65c.06.8.06,1.95.18,3.19s.37,2.57-.41,2.93-2.59-.25-3.95-.75a20,20,0,0,1-3.09-1.34,9.68,9.68,0,0,1-2-1.46,4.54,4.54,0,0,1-1-1.54,12.2,12.2,0,0,1-.69-2.16A13.49,13.49,0,0,1,11.55,14,2.41,2.41,0,0,1,11.81,12.32Z"/><path class="cls-5" d="M11.83,12.33c.28-.27.82-.16,1.43,0s1.31.45,2.1.72l2.51.83c.83.27,1.6.53,2.36.83a6.77,6.77,0,0,1,2,1,2.16,2.16,0,0,1,.64,1.64c.06.8.06,2,.18,3.19s.37,2.58-.41,2.94-2.59-.25-4-.75a21.6,21.6,0,0,1-3.09-1.34,9.69,9.69,0,0,1-2-1.47,4.41,4.41,0,0,1-1-1.53,12.47,12.47,0,0,1-.69-2.16A13.49,13.49,0,0,1,11.58,14a2.51,2.51,0,0,1,.25-1.66"/><path class="cls-6" d="M11.83,12.33c.28-.27.82-.16,1.43,0s1.31.45,2.1.72l2.51.83c.83.27,1.6.53,2.36.83a6.77,6.77,0,0,1,2,1,2.16,2.16,0,0,1,.64,1.64c.06.8.06,2,.18,3.19s.37,2.58-.41,2.94-2.59-.25-4-.75a21.6,21.6,0,0,1-3.09-1.34,9.69,9.69,0,0,1-2-1.47,4.41,4.41,0,0,1-1-1.53,12.47,12.47,0,0,1-.69-2.16A13.49,13.49,0,0,1,11.58,14,2.51,2.51,0,0,1,11.83,12.33Z"/><path class="cls-5" d="M1.37,5.8c.4-.26,1.53.72,2.67,1.69a12.36,12.36,0,0,1,3,2.76,4.24,4.24,0,0,1,.41,2.69c-.07.82-.12,1.53-.13,2.14a3,3,0,0,1-.17,1.4c-.17.25-.54.22-1.07-.12a8.69,8.69,0,0,1-2-1.88,14.12,14.12,0,0,1-1.81-3,13,13,0,0,1-.73-2.86C1.32,7.54,1,6.05,1.37,5.8"/><path class="cls-6" d="M1.37,5.8c.4-.26,1.53.72,2.67,1.69a12.36,12.36,0,0,1,3,2.76,4.24,4.24,0,0,1,.41,2.69c-.07.82-.12,1.53-.13,2.14a3,3,0,0,1-.17,1.4c-.17.25-.54.22-1.07-.12a8.69,8.69,0,0,1-2-1.88,14.12,14.12,0,0,1-1.81-3,13,13,0,0,1-.73-2.86C1.32,7.54,1,6.05,1.37,5.8Z"/></svg>