<svg id="Layer_1" data-name="Layer 1" xmlns="http://www.w3.org/2000/svg" viewBox="0 0 197.45 56.4"><defs><style>.cls-1,.cls-2{fill:#fff;}.cls-2{fill-rule:evenodd;}</style></defs><polyline class="cls-1" points="59.15 21.6 59.15 0 62.15 0 62.15 21.6 59.15 21.6"/><path class="cls-1" d="M67,21.6V6h2.7V8.21A5.37,5.37,0,0,1,74.42,5.7a6,6,0,0,1,2.5.51,4,4,0,0,1,1.7,1.32,5.26,5.26,0,0,1,.79,2A16.16,16.16,0,0,1,79.55,12V21.6h-2.7V12.22a7.19,7.19,0,0,0-.3-2.39,2.56,2.56,0,0,0-1.07-1.26,3.4,3.4,0,0,0-1.8-.47,4.14,4.14,0,0,0-2.84,1.06c-.79.71-1.19,2.05-1.19,4V21.6H67"/><path class="cls-1" d="M87.61,21.6,82,6h2.86L88,15.34q.54,1.52,1,3.15.34-1.23,1-3L93.19,6h2.86L90.77,21.6H87.61"/><path class="cls-1" d="M100.25,13.8a6.25,6.25,0,0,0,1.28,4.28,4.35,4.35,0,0,0,6.44,0,6.4,6.4,0,0,0,1.28-4.36A6.06,6.06,0,0,0,108,9.52a4.35,4.35,0,0,0-6.43,0,6.22,6.22,0,0,0-1.28,4.28m-2.7,0q0-4.31,2.37-6.38a7.12,7.12,0,0,1,4.84-1.72,6.86,6.86,0,0,1,5.18,2.1,8,8,0,0,1,2,5.78,10.36,10.36,0,0,1-.89,4.71A6.38,6.38,0,0,1,108.47,21a7.53,7.53,0,0,1-3.71.95,6.88,6.88,0,0,1-5.22-2.09A8.35,8.35,0,0,1,97.55,13.8Z"/><path class="cls-1" d="M115.25,21.6V6H118V21.6h-2.7m0-18.9V0H118V2.7Z"/><path class="cls-1" d="M131.75,15.9l2.7.3a6.69,6.69,0,0,1-2.17,4.19A6.29,6.29,0,0,1,128,21.9a6.66,6.66,0,0,1-5.12-2.08,8.41,8.41,0,0,1-1.93-6,10.81,10.81,0,0,1,.83-4.39,5.78,5.78,0,0,1,2.52-2.83A7.44,7.44,0,0,1,128,5.7,6.22,6.22,0,0,1,132.1,7a6.11,6.11,0,0,1,2.05,3.77l-2.7.3a4.05,4.05,0,0,0-1.26-2.25A3.33,3.33,0,0,0,128,8.1a4,4,0,0,0-3.14,1.37,6.39,6.39,0,0,0-1.21,4.32,6.56,6.56,0,0,0,1.18,4.35,3.86,3.86,0,0,0,3.08,1.36,3.74,3.74,0,0,0,2.54-.88,4.25,4.25,0,0,0,1.3-2.72"/><path class="cls-1" d="M138.35,12h9.3a4.1,4.1,0,0,0-1.07-2.57,4.75,4.75,0,0,0-3.5-1.33,5,5,0,0,0-3.26,1.06A3.85,3.85,0,0,0,138.35,12m9.27,4.8,2.64.3a6.33,6.33,0,0,1-2.44,3.54,7.78,7.78,0,0,1-4.57,1.26,7.41,7.41,0,0,1-5.55-2.1,8,8,0,0,1-2-5.87,8.41,8.41,0,0,1,2.07-6.07A7.11,7.11,0,0,1,143.1,5.7a6.93,6.93,0,0,1,5.22,2.1,8.17,8.17,0,0,1,2,5.91c0,.15,0,.38,0,.69h-12a5.52,5.52,0,0,0,1.52,3.79,4.8,4.8,0,0,0,3.43,1.31,4.94,4.94,0,0,0,2.6-.64A4.46,4.46,0,0,0,147.62,16.8Z"/><path class="cls-1" d="M62.45,47.1h7.49l-2.13-5.83C67.14,39.46,66.6,38,66.2,36.9l-1.47,4-2.28,6.2M56,56.1l8.56-21.6h3.31l8.57,21.6H73.25l-2.42-6.6H61.57l-2.42,6.6Z"/><path class="cls-1" d="M80.15,48.3a6.38,6.38,0,0,0,1.22,4.28A3.67,3.67,0,0,0,84.24,54a3.62,3.62,0,0,0,2.84-1.35,6.19,6.19,0,0,0,1.17-4.13A7,7,0,0,0,87.06,44a3.69,3.69,0,0,0-2.93-1.43A3.55,3.55,0,0,0,81.29,44a6.74,6.74,0,0,0-1.14,4.33m8.1,7.8V53.84A4.63,4.63,0,0,1,84,56.4a5.89,5.89,0,0,1-3.34-1,6.66,6.66,0,0,1-2.36-2.85,10,10,0,0,1-.84-4.22,11.15,11.15,0,0,1,.77-4.21A6.06,6.06,0,0,1,84,40.2a4.82,4.82,0,0,1,2.49.65,5.57,5.57,0,0,1,1.78,1.7v-8H91V56.1Z"/><path class="cls-1" d="M97,48.3a6.43,6.43,0,0,0,1.22,4.28A3.67,3.67,0,0,0,101,54a3.62,3.62,0,0,0,2.84-1.35,6.19,6.19,0,0,0,1.17-4.13A7,7,0,0,0,103.86,44a3.69,3.69,0,0,0-2.93-1.43A3.55,3.55,0,0,0,98.09,44,6.74,6.74,0,0,0,97,48.3m8.1,7.8V53.84a4.63,4.63,0,0,1-4.26,2.56,5.89,5.89,0,0,1-3.34-1,6.66,6.66,0,0,1-2.36-2.85,10,10,0,0,1-.84-4.22A11.15,11.15,0,0,1,95,44.1a6.08,6.08,0,0,1,2.31-2.89,6.2,6.2,0,0,1,3.45-1,4.82,4.82,0,0,1,2.49.65,5.57,5.57,0,0,1,1.78,1.7v-8h2.7V56.1Z"/><path class="cls-1" d="M112.25,56.1V40.5h2.4v2.09a5.74,5.74,0,0,1,1.57-1.93,2.87,2.87,0,0,1,1.59-.46,5.13,5.13,0,0,1,2.54.74l-.86,2.41a2.79,2.79,0,0,0-1.79-.75,2.2,2.2,0,0,0-1.43.53,3,3,0,0,0-.91,1.48,11.6,11.6,0,0,0-.41,3.15V56.1h-2.7"/><path class="cls-1" d="M123.65,46.5H133a4.1,4.1,0,0,0-1.07-2.57,4.75,4.75,0,0,0-3.5-1.33,5,5,0,0,0-3.26,1.06,3.85,3.85,0,0,0-1.47,2.84m9.27,4.8,2.64.3a6.29,6.29,0,0,1-2.45,3.54,7.72,7.72,0,0,1-4.56,1.26A7.41,7.41,0,0,1,123,54.3a8,8,0,0,1-2-5.87A8.41,8.41,0,0,1,123,42.36a7.11,7.11,0,0,1,5.38-2.16,6.93,6.93,0,0,1,5.22,2.1,8.17,8.17,0,0,1,2,5.91c0,.15,0,.38,0,.69h-12a5.52,5.52,0,0,0,1.52,3.79A4.8,4.8,0,0,0,128.6,54a4.94,4.94,0,0,0,2.6-.64A4.46,4.46,0,0,0,132.92,51.3Z"/><path class="cls-1" d="M137.75,51.3l2.7-.3a3.28,3.28,0,0,0,1.21,2.23,4.42,4.42,0,0,0,2.76.77,4.3,4.3,0,0,0,2.66-.68,2,2,0,0,0,.87-1.6,1.46,1.46,0,0,0-1-1.3,18.49,18.49,0,0,0-2.71-.82,27.58,27.58,0,0,1-3.85-1.28,4,4,0,0,1-1.75-1.49,4,4,0,0,1-.59-2.11,4,4,0,0,1,.47-1.94,4.36,4.36,0,0,1,1.27-1.49,5.4,5.4,0,0,1,1.65-.77,7.77,7.77,0,0,1,2.24-.32,8.59,8.59,0,0,1,3.17.54,4.45,4.45,0,0,1,2,1.48,5.82,5.82,0,0,1,.89,2.48l-2.7.3a2.67,2.67,0,0,0-1-1.76,3.4,3.4,0,0,0-2.22-.64,4,4,0,0,0-2.41.55,1.61,1.61,0,0,0-.72,1.29,1.31,1.31,0,0,0,.3.84,2.14,2.14,0,0,0,.94.64c.24.09,1,.3,2.17.62q2.59.76,3.84,1.23a4.36,4.36,0,0,1,1.94,1.4,3.62,3.62,0,0,1,.71,2.27,4.49,4.49,0,0,1-.77,2.5,5,5,0,0,1-2.21,1.82,8,8,0,0,1-3.28.64,7.13,7.13,0,0,1-4.61-1.29,6,6,0,0,1-2-3.81"/><path class="cls-1" d="M152.75,51.3l2.7-.3a3.28,3.28,0,0,0,1.21,2.23,4.42,4.42,0,0,0,2.76.77,4.3,4.3,0,0,0,2.66-.68,2,2,0,0,0,.87-1.6,1.46,1.46,0,0,0-1-1.3,18.49,18.49,0,0,0-2.71-.82,27.58,27.58,0,0,1-3.85-1.28,4,4,0,0,1-1.75-1.49,4,4,0,0,1-.59-2.11,4,4,0,0,1,.47-1.94,4.36,4.36,0,0,1,1.27-1.49,5.4,5.4,0,0,1,1.65-.77,7.77,7.77,0,0,1,2.24-.32,8.59,8.59,0,0,1,3.17.54,4.45,4.45,0,0,1,2,1.48,5.82,5.82,0,0,1,.89,2.48l-2.7.3a2.67,2.67,0,0,0-1-1.76,3.4,3.4,0,0,0-2.22-.64,4,4,0,0,0-2.41.55,1.61,1.61,0,0,0-.72,1.29,1.31,1.31,0,0,0,.3.84,2.14,2.14,0,0,0,.94.64c.24.09,1,.3,2.17.62q2.59.76,3.84,1.23a4.36,4.36,0,0,1,1.94,1.4,3.62,3.62,0,0,1,.71,2.27,4.49,4.49,0,0,1-.77,2.5,5,5,0,0,1-2.21,1.82,8,8,0,0,1-3.28.64,7.13,7.13,0,0,1-4.61-1.29,6,6,0,0,1-2-3.81"/><path class="cls-1" d="M170.45,46.5h9.3a4.1,4.1,0,0,0-1.07-2.57,4.75,4.75,0,0,0-3.5-1.33,5,5,0,0,0-3.26,1.06,3.85,3.85,0,0,0-1.47,2.84m9.27,4.8,2.64.3a6.33,6.33,0,0,1-2.44,3.54,7.78,7.78,0,0,1-4.57,1.26,7.41,7.41,0,0,1-5.55-2.1,8,8,0,0,1-2.05-5.87,8.41,8.41,0,0,1,2.07-6.07,7.11,7.11,0,0,1,5.38-2.16,6.93,6.93,0,0,1,5.22,2.1,8.17,8.17,0,0,1,2,5.91c0,.15,0,.38,0,.69h-12A5.52,5.52,0,0,0,172,52.69,4.8,4.8,0,0,0,175.4,54a5,5,0,0,0,2.61-.64A4.5,4.5,0,0,0,179.72,51.3Z"/><path class="cls-1" d="M184.55,51.3l2.7-.3a3.31,3.31,0,0,0,1.21,2.23,4.42,4.42,0,0,0,2.76.77,4.3,4.3,0,0,0,2.66-.68,2,2,0,0,0,.87-1.6,1.46,1.46,0,0,0-1-1.3,17.84,17.84,0,0,0-2.7-.82,27.58,27.58,0,0,1-3.85-1.28,4,4,0,0,1-1.75-1.49,4,4,0,0,1-.59-2.11,4.15,4.15,0,0,1,.47-1.94,4.25,4.25,0,0,1,1.27-1.49,5.4,5.4,0,0,1,1.65-.77,7.77,7.77,0,0,1,2.24-.32,8.5,8.5,0,0,1,3.16.54,4.43,4.43,0,0,1,2,1.48,5.82,5.82,0,0,1,.89,2.48l-2.7.3a2.67,2.67,0,0,0-.95-1.76,3.4,3.4,0,0,0-2.22-.64,4,4,0,0,0-2.41.55,1.61,1.61,0,0,0-.72,1.29,1.31,1.31,0,0,0,.3.84,2.14,2.14,0,0,0,.94.64c.25.09,1,.3,2.17.62,1.73.51,3,.92,3.84,1.23a4.41,4.41,0,0,1,1.94,1.4,3.62,3.62,0,0,1,.71,2.27,4.49,4.49,0,0,1-.77,2.5,5,5,0,0,1-2.22,1.82,7.92,7.92,0,0,1-3.27.64,7.13,7.13,0,0,1-4.61-1.29,6,6,0,0,1-2-3.81"/><path class="cls-2" d="M26.18,28.19H34V39.8H26.18V28.19M0,26.84l8.51-7.61,0-8.76h2.89l.05,5.61L21.65,7,43.92,26.8H40L40.14,49l-20.42-.08L19.65,28,9.3,28l.22,20.94-5.9,0-.09-22Z"/></svg>