<svg id="Layer_1" data-name="Layer 1" xmlns="http://www.w3.org/2000/svg" viewBox="0 0 26.48 26.51"><defs><style>.cls-1{fill:#fff;}</style></defs><path class="cls-1" d="M16.24,16.18v8.44a1.05,1.05,0,0,1-.47,1,4.28,4.28,0,0,1-2.43.88,4.33,4.33,0,0,1-2.45-.86,1.12,1.12,0,0,1-.51-1l0-8.42-8.48,0a1,1,0,0,1-1-.47A4.27,4.27,0,0,1,0,13.33a4.22,4.22,0,0,1,.86-2.46,1.11,1.11,0,0,1,1-.5l8.44,0V1.88a1,1,0,0,1,.47-1A4.27,4.27,0,0,1,13.2,0a4.22,4.22,0,0,1,2.46.86,1.11,1.11,0,0,1,.5,1v8.46h8.44a1.06,1.06,0,0,1,1,.47,4.27,4.27,0,0,1,.88,2.42,4.36,4.36,0,0,1-.86,2.46,1.11,1.11,0,0,1-1,.5H16.14" transform="translate(0 0)"/></svg>