<svg id="Layer_1" data-name="Layer 1" xmlns="http://www.w3.org/2000/svg" viewBox="0 0 12.99 11.61"><defs><style>.cls-1{fill:#e8e8e8;}.cls-2{fill:#a09f9f;}.cls-3{fill:#d2d2d2;}.cls-4{fill:#fff;}</style></defs><path class="cls-1" d="M.3,3H3V5.24h7.1V3H12.7a.29.29,0,0,1,.29.29V6a.29.29,0,0,1-.29.3H.3A.29.29,0,0,1,0,6V3.24A.29.29,0,0,1,.3,3"/><path class="cls-2" d="M11.91,3.2a.31.31,0,1,1-.31.31.31.31,0,0,1,.31-.31"/><path class="cls-2" d="M11.92,4.23a.31.31,0,0,1,0,.62.31.31,0,1,1,0-.62"/><path class="cls-3" d="M13,6.82V9.88a.31.31,0,0,1-.3.3H10.06V8.67H3v1.52H.38a.31.31,0,0,1-.3-.3V6.81H13"/><polyline class="cls-4" points="3.39 9.05 9.6 9.05 9.6 11.61 3.39 11.61 3.39 9.05"/><polyline class="cls-4" points="3.42 0 9.63 0 9.63 4.87 3.42 4.87 3.42 0"/></svg>