<svg id="Layer_1" data-name="Layer 1" xmlns="http://www.w3.org/2000/svg" viewBox="0 0 191.86 87.3"><defs><style>.cls-1,.cls-2{fill:#fff;}.cls-2{font-size:39.03px;font-family:ArialMT, Arial;}</style></defs><path class="cls-1" d="M29.86,11a17,17,0,1,1-17,17,17,17,0,0,1,17-17"/><path class="cls-1" d="M15.85,42.22a23.32,23.32,0,0,0,6.09,4.16,20.65,20.65,0,0,0,9,1.65,20.43,20.43,0,0,0,8.16-2.25A23.16,23.16,0,0,0,44,42.22c3.58,2.4,7.15,4.8,10,8.83a37.28,37.28,0,0,1,5.46,12.69c.55,3-.45,3.34-1.46,3.69H1.73C.66,67-.41,66.63.16,63.57A37.54,37.54,0,0,1,5.85,50.79c2.88-4,6.44-6.29,10-8.57"/><text class="cls-2" transform="translate(72.56 33.49)">User</text><text class="cls-2" transform="translate(72.57 74.63)">Details</text></svg>