<svg id="Layer_1" data-name="Layer 1" xmlns="http://www.w3.org/2000/svg" viewBox="0 0 59.61 56.43"><defs><style>.cls-1{fill:#9b1915;stroke:#8c1c27;stroke-width:1px;}</style></defs><path class="cls-1" d="M29.86,0a17,17,0,1,1-17,17,17,17,0,0,1,17-17"/><path class="cls-1" d="M15.85,31.22a23.25,23.25,0,0,0,6.09,4.16,20.58,20.58,0,0,0,9,1.65,20.39,20.39,0,0,0,8.16-2.25A23.17,23.17,0,0,0,44,31.22c3.58,2.4,7.15,4.8,10,8.83a37.31,37.31,0,0,1,5.46,12.69c.55,3-.45,3.34-1.46,3.69H1.73C.66,56-.41,55.63.16,52.57A37.6,37.6,0,0,1,5.85,39.79c2.88-4,6.44-6.29,10-8.57"/></svg>