<svg id="Layer_1" data-name="Layer 1" xmlns="http://www.w3.org/2000/svg" viewBox="0 0 190.52 56.4"><defs><style>.cls-1,.cls-6{fill:#fff;}.cls-2{fill:#7c7c69;}.cls-3,.cls-7{fill:none;stroke-linejoin:round;stroke-width:0.38px;}.cls-3{stroke:#000;}.cls-4{fill:#767668;}.cls-5{fill:#68685e;fill-rule:evenodd;}.cls-6,.cls-7{opacity:0.61;}.cls-7{stroke:#9a9a48;}</style></defs><path class="cls-1" d="M90.08,21.6,81.4,0h3.22l5.86,15.55c.47,1.24.87,2.41,1.19,3.5.33-1.17.72-2.34,1.17-3.5L98.72,0h3.22L93.57,21.6H90.08"/><path class="cls-1" d="M103.07,21.6V6h2.7V21.6h-2.7m0-18.9V0h2.7V2.7Z"/><path class="cls-1" d="M111.17,12h9.3a4.1,4.1,0,0,0-1.07-2.57,4.75,4.75,0,0,0-3.5-1.33,5.08,5.08,0,0,0-3.27,1.06A3.88,3.88,0,0,0,111.17,12m9.26,4.8,2.65.3a6.29,6.29,0,0,1-2.45,3.54,7.72,7.72,0,0,1-4.56,1.26,7.38,7.38,0,0,1-5.55-2.1,8,8,0,0,1-2-5.87,8.41,8.41,0,0,1,2.07-6.07,7.11,7.11,0,0,1,5.38-2.16,6.93,6.93,0,0,1,5.22,2.1,8.17,8.17,0,0,1,2,5.91c0,.15,0,.38,0,.69h-12a5.47,5.47,0,0,0,1.52,3.78,4.76,4.76,0,0,0,3.43,1.32,5.06,5.06,0,0,0,2.6-.64A4.38,4.38,0,0,0,120.43,16.8Z"/><path class="cls-1" d="M128.89,21.6,124.22,6H127l2.64,9,.81,3.33c0-.16.29-1.24.79-3.23L133.74,6h2.6l2.45,9.09.73,2.94.85-3.05L143,6h2.82l-4.7,15.6h-3l-2.44-9.31L135,9.6l-3.13,12h-3"/><polyline class="cls-1" points="84.32 56.1 84.32 34.5 87.32 34.5 87.32 56.1 84.32 56.1"/><path class="cls-1" d="M92.12,56.1V40.5h2.7v2.21a5.37,5.37,0,0,1,4.77-2.51,6,6,0,0,1,2.49.51A3.89,3.89,0,0,1,103.79,42a5.26,5.26,0,0,1,.79,1.95,16.16,16.16,0,0,1,.14,2.56V56.1H102V46.72a7.19,7.19,0,0,0-.3-2.39,2.52,2.52,0,0,0-1.07-1.26,3.4,3.4,0,0,0-1.8-.47A4.14,4.14,0,0,0,96,43.66c-.79.71-1.19,2.05-1.19,4V56.1h-2.7"/><path class="cls-1" d="M112.77,56.1l-5.65-15.6H110l3.2,9.34q.54,1.52,1,3.15.35-1.23,1-3l3.23-9.52h2.86l-5.29,15.6h-3.16"/><path class="cls-1" d="M125.42,48.3a6.2,6.2,0,0,0,1.28,4.28,4.34,4.34,0,0,0,6.43,0,6.34,6.34,0,0,0,1.29-4.36A6.06,6.06,0,0,0,133.13,44a4.35,4.35,0,0,0-6.43,0,6.17,6.17,0,0,0-1.28,4.28m-2.7,0q0-4.3,2.37-6.38a7.1,7.1,0,0,1,4.84-1.72,6.86,6.86,0,0,1,5.18,2.1,8,8,0,0,1,2,5.78,10.36,10.36,0,0,1-.89,4.71,6.38,6.38,0,0,1-2.59,2.66,7.53,7.53,0,0,1-3.71.95,6.87,6.87,0,0,1-5.22-2.09A8.35,8.35,0,0,1,122.72,48.3Z"/><path class="cls-1" d="M140.42,56.1V40.5h2.7V56.1h-2.7m0-18.9V34.5h2.7v2.7Z"/><path class="cls-1" d="M156.92,50.4l2.7.3a6.74,6.74,0,0,1-2.17,4.19,6.29,6.29,0,0,1-4.28,1.51,6.64,6.64,0,0,1-5.12-2.08,8.43,8.43,0,0,1-1.93-6A10.65,10.65,0,0,1,147,44a5.78,5.78,0,0,1,2.52-2.83,7.41,7.41,0,0,1,3.68-.94,5.81,5.81,0,0,1,6.17,5.1l-2.7.3a4.05,4.05,0,0,0-1.26-2.25,3.34,3.34,0,0,0-2.19-.75A4,4,0,0,0,150,44a6.39,6.39,0,0,0-1.21,4.32A6.56,6.56,0,0,0,150,52.64,3.86,3.86,0,0,0,153.08,54a3.74,3.74,0,0,0,2.54-.88,4.3,4.3,0,0,0,1.3-2.72"/><path class="cls-1" d="M163.52,46.5h9.3a4.1,4.1,0,0,0-1.07-2.57,4.75,4.75,0,0,0-3.5-1.33A5.08,5.08,0,0,0,165,43.66a3.88,3.88,0,0,0-1.46,2.84m9.26,4.8,2.65.3A6.29,6.29,0,0,1,173,55.14a7.72,7.72,0,0,1-4.56,1.26,7.38,7.38,0,0,1-5.55-2.1,8,8,0,0,1-2.05-5.87,8.41,8.41,0,0,1,2.07-6.07,7.11,7.11,0,0,1,5.38-2.16,6.93,6.93,0,0,1,5.22,2.1,8.17,8.17,0,0,1,2,5.91c0,.15,0,.38,0,.69h-12A5.47,5.47,0,0,0,165,52.68,4.76,4.76,0,0,0,168.47,54a5.06,5.06,0,0,0,2.6-.64A4.38,4.38,0,0,0,172.78,51.3Z"/><path class="cls-1" d="M177.62,51.3l2.7-.3a3.31,3.31,0,0,0,1.2,2.23,4.45,4.45,0,0,0,2.77.77,4.3,4.3,0,0,0,2.66-.68,2,2,0,0,0,.87-1.6,1.46,1.46,0,0,0-1-1.3,18.65,18.65,0,0,0-2.7-.82,27.58,27.58,0,0,1-3.85-1.28,4,4,0,0,1-1.75-1.49,4.15,4.15,0,0,1-.12-4,4.25,4.25,0,0,1,1.27-1.49,5.29,5.29,0,0,1,1.65-.77,7.72,7.72,0,0,1,2.24-.32,8.54,8.54,0,0,1,3.16.54,4.34,4.34,0,0,1,2,1.48,5.82,5.82,0,0,1,.9,2.48l-2.7.3a2.72,2.72,0,0,0-.95-1.77,3.45,3.45,0,0,0-2.22-.63,4,4,0,0,0-2.41.55,1.61,1.61,0,0,0-.72,1.29,1.31,1.31,0,0,0,.3.84,2.14,2.14,0,0,0,.94.64c.24.09,1,.3,2.16.62,1.74.51,3,.92,3.85,1.23a4.41,4.41,0,0,1,1.94,1.4,3.62,3.62,0,0,1,.71,2.27,4.49,4.49,0,0,1-.77,2.5,5,5,0,0,1-2.22,1.82,7.92,7.92,0,0,1-3.27.64,7.18,7.18,0,0,1-4.62-1.29,6,6,0,0,1-2-3.81"/><path class="cls-2" d="M.22,19c5.49-.73,11-1.45,16-2.15S25.92,15.48,30.47,15a118.23,118.23,0,0,1,12.72-.88,43.31,43.31,0,0,1,10.09,1.14c3.57.79,7.88,2,11.59,3s6.85,1.81,8,2.52.37,1.36-.32,2A3,3,0,0,1,69.93,24c-1.37-.1-3.52-1-6.46-2.34a69,69,0,0,0-10.31-4.11,36.7,36.7,0,0,0-10.83-1,57.1,57.1,0,0,0-10.55,1.17,24.78,24.78,0,0,0-7.21,2.84A27.84,27.84,0,0,1,17.32,24c-3.68,1.1-9.4,2.1-15.13,3.11Z"/><path class="cls-3" d="M.22,19c5.49-.73,11-1.45,16-2.15S25.92,15.48,30.47,15a118.23,118.23,0,0,1,12.72-.88,43.31,43.31,0,0,1,10.09,1.14c3.57.79,7.88,2,11.59,3s6.85,1.81,8,2.52.37,1.36-.32,2A3,3,0,0,1,69.93,24c-1.37-.1-3.52-1-6.46-2.34a69,69,0,0,0-10.31-4.11,36.7,36.7,0,0,0-10.83-1,57.1,57.1,0,0,0-10.55,1.17,24.78,24.78,0,0,0-7.21,2.84A27.84,27.84,0,0,1,17.32,24c-3.68,1.1-9.4,2.1-15.13,3.11Z"/><path class="cls-4" d="M37.14,36.1c10-1.8,20-3.61,25.75-4.67s7.11-1.39,9.86-2,6.83-1.51,9.88-2a28,28,0,0,1,7.71-.19c2.66.28,6,.84,9.29,1.39.17,0,.32.55.32.73l-3,3.74a7,7,0,0,0-.91-.21c-2.73-1.42-5.47-2.85-8.82-3.07s-7.31.77-11.27,1.76c0,0-2.4.34-8.64,3.13C64.45,36,58.93,39.55,55.8,40.68c-3.89,1.4-10.91,3.62-14.17,4.42-4.76,1.16-5,.58-5,.53L36,36.26C36.21,36.34,37,36.1,37.14,36.1Z"/><path class="cls-3" d="M37.14,36.1c10-1.8,20-3.61,25.75-4.67s7.11-1.39,9.86-2,6.83-1.51,9.88-2a28,28,0,0,1,7.71-.19c2.66.28,6,.84,9.29,1.39.17,0,.32.55.32.73l-3,3.74a7,7,0,0,0-.91-.21c-2.73-1.42-5.47-2.85-8.82-3.07s-7.31.77-11.27,1.76c0,0-2.4.34-8.64,3.13C64.45,36,58.93,39.55,55.8,40.68c-3.89,1.4-10.91,3.62-14.17,4.42-4.76,1.16-5,.58-5,.53L36,36.26C36.21,36.34,37,36.1,37.14,36.1Z"/><path class="cls-5" d="M1.88,22.24c.57-.37,2.23,1.05,3.88,2.47s3.52,2.67,4.34,4a6.12,6.12,0,0,1,.59,3.92c-.09,1.2-.16,2.23-.18,3.13a4.56,4.56,0,0,1-.25,2c-.25.36-.78.32-1.57-.17a13.06,13.06,0,0,1-2.84-2.75,20.23,20.23,0,0,1-2.65-4.3,19.41,19.41,0,0,1-1.07-4.17C1.8,24.78,1.3,22.62,1.88,22.24Zm1.59-1.69a18.88,18.88,0,0,1,2.75,1.61c1.17.81,2.65,2,3.66,2.78a18.8,18.8,0,0,1,2,1.65,6.73,6.73,0,0,1,1,1.46c.26.49.45.94.92,1.16a4.48,4.48,0,0,0,1.92.18c.69,0,1.3-.11,2-.09a12.32,12.32,0,0,1,2.37.36c1,.23,2.37.59,3.81,1.06s3,1.08,5,1.81,4.39,1.6,5.66,2.14,1.42.76,1.53,1.41.17,1.74.24,3.15.14,3.17.2,4.81a32.25,32.25,0,0,1,0,4.07c-.11.9-.4,1.16-1.11,1.37a14.85,14.85,0,0,1-3.12.43,15.16,15.16,0,0,1-4.41-.32,22.14,22.14,0,0,1-5.19-2,11.89,11.89,0,0,1-3.85-3A12,12,0,0,1,17,41c-.38-1.16-.65-2.12-.89-2.93a6,6,0,0,0-.89-2c-.41-.52-1-.9-1.59-.6a6.94,6.94,0,0,0-1.8,2.17,4.09,4.09,0,0,1-2.27,2,5.18,5.18,0,0,1-3.29-.82,5.79,5.79,0,0,1-2.57-3,44.14,44.14,0,0,1-2.33-6.7,34.74,34.74,0,0,1-.9-4.87C.34,23,.27,22.25.23,21.59S.18,20.41.19,20s0-.71.24-.76a2.79,2.79,0,0,1,1.16.41C2.11,19.9,2.74,20.19,3.47,20.55ZM17.14,31.78c.4-.4,1.18-.24,2.08,0s1.91.65,3.06,1,2.46.82,3.66,1.21,2.33.78,3.44,1.21a10.29,10.29,0,0,1,2.86,1.49,3.1,3.1,0,0,1,.93,2.4c.1,1.17.1,2.84.27,4.66s.54,3.75-.6,4.28-3.77-.37-5.76-1.1a29.73,29.73,0,0,1-4.51-1.95,13.81,13.81,0,0,1-2.93-2.14,6.48,6.48,0,0,1-1.46-2.24,18.25,18.25,0,0,1-1-3.15,20.2,20.2,0,0,1-.42-3.34A3.61,3.61,0,0,1,17.14,31.78Z"/><path class="cls-3" d="M1.88,22.24c.57-.37,2.23,1.05,3.88,2.47s3.52,2.67,4.34,4a6.12,6.12,0,0,1,.59,3.92c-.09,1.2-.16,2.23-.18,3.13a4.56,4.56,0,0,1-.25,2c-.25.36-.78.32-1.57-.17a13.06,13.06,0,0,1-2.84-2.75,20.23,20.23,0,0,1-2.65-4.3,19.41,19.41,0,0,1-1.07-4.17C1.8,24.78,1.3,22.62,1.88,22.24Zm1.59-1.69a18.88,18.88,0,0,1,2.75,1.61c1.17.81,2.65,2,3.66,2.78a18.8,18.8,0,0,1,2,1.65,6.73,6.73,0,0,1,1,1.46c.26.49.45.94.92,1.16a4.48,4.48,0,0,0,1.92.18c.69,0,1.3-.11,2-.09a12.32,12.32,0,0,1,2.37.36c1,.23,2.37.59,3.81,1.06s3,1.08,5,1.81,4.39,1.6,5.66,2.14,1.42.76,1.53,1.41.17,1.74.24,3.15.14,3.17.2,4.81a32.25,32.25,0,0,1,0,4.07c-.11.9-.4,1.16-1.11,1.37a14.85,14.85,0,0,1-3.12.43,15.16,15.16,0,0,1-4.41-.32,22.14,22.14,0,0,1-5.19-2,11.89,11.89,0,0,1-3.85-3A12,12,0,0,1,17,41c-.38-1.16-.65-2.12-.89-2.93a6,6,0,0,0-.89-2c-.41-.52-1-.9-1.59-.6a6.94,6.94,0,0,0-1.8,2.17,4.09,4.09,0,0,1-2.27,2,5.18,5.18,0,0,1-3.29-.82,5.79,5.79,0,0,1-2.57-3,44.14,44.14,0,0,1-2.33-6.7,34.74,34.74,0,0,1-.9-4.87C.34,23,.27,22.25.23,21.59S.18,20.41.19,20s0-.71.24-.76a2.79,2.79,0,0,1,1.16.41C2.11,19.9,2.74,20.19,3.47,20.55ZM17.14,31.78c.4-.4,1.18-.24,2.08,0s1.91.65,3.06,1,2.46.82,3.66,1.21,2.33.78,3.44,1.21a10.29,10.29,0,0,1,2.86,1.49,3.1,3.1,0,0,1,.93,2.4c.1,1.17.1,2.84.27,4.66s.54,3.75-.6,4.28-3.77-.37-5.76-1.1a29.73,29.73,0,0,1-4.51-1.95,13.81,13.81,0,0,1-2.93-2.14,6.48,6.48,0,0,1-1.46-2.24,18.25,18.25,0,0,1-1-3.15,20.2,20.2,0,0,1-.42-3.34A3.61,3.61,0,0,1,17.14,31.78Z"/><path class="cls-6" d="M17.18,31.8c.4-.4,1.18-.23,2.08,0s1.91.65,3.07,1.05L26,34.1c1.21.39,2.33.77,3.44,1.2a10.29,10.29,0,0,1,2.86,1.49,3.14,3.14,0,0,1,.94,2.4c.09,1.17.09,2.85.26,4.66s.54,3.75-.6,4.28-3.77-.37-5.75-1.09a29.74,29.74,0,0,1-4.51-2,13.64,13.64,0,0,1-2.94-2.14,6.48,6.48,0,0,1-1.46-2.24,18.85,18.85,0,0,1-1-3.15,20.2,20.2,0,0,1-.42-3.34,3.62,3.62,0,0,1,.38-2.41"/><path class="cls-7" d="M17.18,31.8c.4-.4,1.18-.23,2.08,0s1.91.65,3.07,1.05L26,34.1c1.21.39,2.33.77,3.44,1.2a10.29,10.29,0,0,1,2.86,1.49,3.14,3.14,0,0,1,.94,2.4c.09,1.17.09,2.85.26,4.66s.54,3.75-.6,4.28-3.77-.37-5.75-1.09a29.74,29.74,0,0,1-4.51-2,13.64,13.64,0,0,1-2.94-2.14,6.48,6.48,0,0,1-1.46-2.24,18.85,18.85,0,0,1-1-3.15,20.2,20.2,0,0,1-.42-3.34A3.62,3.62,0,0,1,17.18,31.8Z"/><path class="cls-6" d="M1.92,22.26c.57-.37,2.23,1,3.88,2.47s3.52,2.67,4.34,4a6.19,6.19,0,0,1,.6,3.92c-.1,1.2-.17,2.23-.19,3.13a4.74,4.74,0,0,1-.24,2c-.26.36-.79.32-1.58-.17a13.06,13.06,0,0,1-2.84-2.75,20.23,20.23,0,0,1-2.65-4.3,19.41,19.41,0,0,1-1.07-4.17c-.32-1.66-.83-3.82-.25-4.2"/><path class="cls-7" d="M1.92,22.26c.57-.37,2.23,1,3.88,2.47s3.52,2.67,4.34,4a6.19,6.19,0,0,1,.6,3.92c-.1,1.2-.17,2.23-.19,3.13a4.74,4.74,0,0,1-.24,2c-.26.36-.79.32-1.58-.17a13.06,13.06,0,0,1-2.84-2.75,20.23,20.23,0,0,1-2.65-4.3,19.41,19.41,0,0,1-1.07-4.17C1.85,24.8,1.34,22.64,1.92,22.26Z"/></svg>